<svg width="668" height="358" viewBox="0 0 668 358" fill="none" xmlns="http://www.w3.org/2000/svg">
<path fill-rule="evenodd" clip-rule="evenodd" d="M334.451 310.869C330.471 315.549 327.391 320.229 321.981 323.529C308.991 331.439 292.021 328.989 277.451 329.629C248.471 330.899 219.441 331.309 190.451 332.269C153.461 333.499 116.461 335.389 79.4509 336.069C65.1909 336.339 45.3909 339.999 32.6509 332.789C12.0909 321.149 14.3409 296.909 12.7309 276.489C9.55094 236.229 6.87093 195.929 3.51093 155.679C2.10093 138.679 -2.70907 109.559 2.47093 94.0186C5.35093 85.3986 11.7609 77.7986 16.5909 70.1586C23.7009 58.9186 30.6409 47.5386 37.6609 36.2286C43.5009 26.7986 48.0009 17.9086 58.6509 13.1786C67.9109 9.06863 91.5409 10.0686 102.451 9.80863C131.121 9.12863 159.781 7.42863 188.451 6.94863C206.461 6.64863 224.451 5.70863 242.451 5.14863C254.251 4.77863 265.921 3.99863 275.821 11.5986C283.751 17.6886 288.381 28.2886 293.991 36.3886C298.231 42.5186 302.331 48.7286 306.531 54.8786C312.381 63.4386 319.561 71.5786 322.831 81.5486C325.491 89.6686 325.431 98.0186 326.331 106.429C327.991 122.099 329.071 137.819 330.681 153.499C331.271 159.339 331.281 165.299 332.451 171.049C335.421 160.459 337.001 149.319 339.121 138.519C341.611 125.819 344.381 113.169 346.761 100.449C349.001 88.4686 350.261 75.3586 354.381 63.8686C359.161 50.5586 376.241 34.3986 386.041 23.5986C391.611 17.4386 396.701 9.80862 403.581 5.04862C413.551 -1.84138 424.331 -0.0213754 435.491 1.73862C454.881 4.78862 474.151 8.55862 493.531 11.6886C522.911 16.4286 552.191 21.8386 581.551 26.6886C594.311 28.7986 616.501 30.2186 626.691 37.7486C635.961 44.5886 639.561 56.1786 644.261 66.2086C649.461 77.3086 654.841 88.3186 660.021 99.4286C662.281 104.259 665.041 108.829 666.421 114.019C670.511 129.409 662.901 159.009 660.131 175.519C653.151 217.059 646.531 258.669 639.531 300.219C636.061 320.799 636.281 344.879 613.871 354.439C603.071 359.049 592.571 356.989 581.451 355.089C566.711 352.569 551.981 349.959 537.251 347.379C494.151 339.809 451.131 331.819 408.011 324.479C392.441 321.829 376.891 319.059 361.351 316.309C352.331 314.719 343.201 313.659 334.451 310.869ZM419.531 10.1686C406.881 12.7886 405.991 25.0386 404.171 35.4986C400.171 58.5186 395.951 81.4886 391.871 104.489C387.911 126.819 383.921 149.149 380.031 171.489C378.511 180.249 374.671 190.469 379.731 198.709C384.541 206.549 393.251 207.359 401.451 208.949C408.771 210.369 416.071 211.869 423.411 213.169C462.051 219.989 500.641 227.219 539.231 234.339C548.281 235.999 557.351 237.579 566.411 239.199C573.761 240.509 581.381 242.399 587.931 237.479C595.771 231.589 595.721 220.409 597.301 211.639C600.951 191.319 604.771 171.029 608.331 150.699C612.561 126.629 617.241 102.619 621.181 78.4986C622.631 69.5886 626.841 58.8186 622.181 50.2886C617.611 41.9186 608.891 41.2486 600.501 39.7886C592.561 38.4086 584.621 37.0186 576.691 35.6086C541.401 29.3386 505.931 23.9586 470.651 17.6386C459.281 15.5986 447.891 13.6986 436.501 11.7486C430.941 10.7986 425.181 8.99862 419.531 10.1686ZM226.641 15.4586C187.991 17.3786 149.141 18.0586 110.451 19.0486C100.451 19.3086 90.4509 19.8286 80.4509 20.0186C73.9609 20.1386 67.5209 19.6686 61.8609 23.4086C52.7609 29.4186 54.7509 40.2886 55.5409 49.5986C56.0509 55.5386 56.5209 61.5286 56.8609 67.4886C57.6909 81.8486 59.4109 96.1686 60.6309 110.499C62.6309 133.919 64.0109 157.439 66.4909 180.819C67.7209 192.439 65.3609 211.979 75.9709 219.469C81.8009 223.599 88.7809 222.769 95.5209 222.429C104.161 221.999 112.811 222.049 121.451 221.839C160.451 220.909 199.471 219.609 238.451 218.159C247.861 217.809 266.751 219.049 274.991 216.499C279.541 215.099 283.651 211.329 285.341 206.869C287.121 202.169 286.171 197.349 285.901 192.489C285.291 181.489 284.181 170.459 283.161 159.489C280.201 127.849 278.361 96.0986 275.201 64.4786C274.371 56.1686 273.731 47.8186 273.091 39.4886C272.561 32.6986 272.511 26.1186 267.751 20.7086C259.681 11.4986 237.971 14.8886 226.641 15.4586ZM395.451 27.6986C388.271 34.8586 381.461 42.6486 374.801 50.3086C371.201 54.4486 367.111 58.2186 364.671 63.2186C361.721 69.2486 361.091 75.9586 359.811 82.4486C358.161 90.7886 356.671 99.1686 354.911 107.479C348.361 138.359 342.611 169.439 336.801 200.459C333.861 216.129 330.601 231.749 327.701 247.429C326.161 255.769 322.271 265.869 323.451 274.199C331.661 258.339 340.931 242.839 349.781 227.309C353.451 220.869 358.001 210.129 363.451 205.389C364.971 207.759 366.491 210.119 368.011 212.489C353.641 237.819 339.261 263.159 324.891 288.489C326.401 294.439 330.961 298.369 336.451 300.829C339.121 293.619 343.271 287.189 346.961 280.479C353.581 268.439 360.211 256.409 366.881 244.389C369.971 238.829 374.211 227.259 379.551 224.049C384.281 221.199 389.651 223.669 394.681 224.609C405.361 226.619 416.051 228.559 426.731 230.579C465.291 237.859 504.001 244.409 542.561 251.699C551.891 253.459 561.271 254.999 570.621 256.659C574.441 257.339 579.371 257.169 582.311 260.129C585.441 263.279 588.721 279.309 590.221 284.359C595.141 300.959 601.071 317.629 605.021 334.489C605.921 338.349 605.801 342.299 606.451 346.099C610.911 344.929 614.391 342.819 617.591 339.489C610.411 311.159 603.231 282.819 596.051 254.489C599.591 250.249 604.121 247.509 606.881 242.399C610.351 235.979 610.871 228.569 612.151 221.509C613.901 211.899 615.671 202.269 617.311 192.629C621.531 167.749 626.051 142.899 630.471 118.039C632.141 108.629 633.711 99.1886 635.371 89.7686C636.111 85.5686 638.171 79.8586 637.611 75.6286C637.241 72.8086 634.841 69.5886 633.451 67.1486C631.881 70.9686 631.421 75.3086 630.671 79.4286C629.041 88.4486 627.491 97.4686 625.901 106.489C620.811 135.249 615.411 163.949 610.351 192.719C608.761 201.749 607.021 210.749 605.381 219.779C603.891 228.009 602.811 236.009 596.841 242.369C583.771 256.299 561.401 247.629 545.451 244.939C501.691 237.579 458.091 229.099 414.451 221.039C398.211 218.049 375.031 217.379 369.321 198.209C365.561 185.579 371.821 165.679 373.871 152.489C378.391 123.439 384.061 94.4986 389.221 65.5386C390.581 57.9086 391.921 50.2786 393.301 42.6486C394.191 37.6986 395.621 32.6686 395.451 27.6986ZM282.491 37.4886C282.011 42.2786 283.151 47.7086 283.641 52.5186C284.461 60.4886 285.071 68.4986 285.721 76.4886C288.161 106.159 291.081 135.789 293.041 165.489C293.931 178.999 299.011 202.169 292.311 213.829C282.361 231.109 259.461 226.349 242.791 227.469C228.071 228.449 213.191 228.459 198.451 228.859C169.791 229.629 141.111 230.409 112.451 231.309C96.0109 231.829 74.8209 236.289 63.9409 220.459C59.3509 213.769 59.2509 206.259 58.6409 198.489C57.7609 187.149 56.5809 175.829 55.7309 164.489C53.7409 138.149 51.3109 111.809 48.9909 85.4886C47.7409 71.3186 47.3209 56.9486 45.4509 42.8786C40.7809 47.3386 34.4609 59.2986 30.7809 65.3086C24.8709 74.9586 12.0509 91.0086 10.0009 101.489C7.79094 112.859 11.1409 133.309 12.1309 145.489C14.4409 173.799 17.0409 202.139 18.8209 230.489C19.9109 247.839 21.6009 265.149 22.7709 282.489C23.1509 288.089 22.8809 301.019 25.4509 305.139C36.1209 278.849 46.7809 252.559 57.4509 226.269C59.4209 228.339 61.3909 230.419 63.3709 232.489C52.2609 260.819 41.1509 289.159 30.0509 317.489C33.6609 322.159 37.7109 324.849 43.4509 326.279C49.4809 305.409 58.8709 285.339 66.4209 264.959C68.3009 259.869 72.6009 244.819 76.1309 241.669C80.8409 237.469 92.3209 239.049 98.4509 238.929C117.791 238.539 137.121 237.639 156.451 237.079C186.121 236.219 215.791 235.329 245.451 234.199C253.111 233.909 260.791 233.839 268.451 233.579C272.201 233.449 276.511 232.479 279.911 234.529C283.931 236.949 288.401 250.429 290.391 255.069C295.451 266.909 300.781 278.649 306.081 290.389C309.721 298.469 313.991 306.539 315.451 315.309C319.671 313.439 322.661 310.379 325.111 306.489C322.121 301.469 317.451 298.019 315.121 292.329C312.891 286.869 313.571 281.509 312.451 275.929C311.511 271.249 308.591 266.109 306.731 261.689C303.371 253.709 300.051 245.709 296.671 237.729C295.131 234.069 293.201 230.369 292.451 226.489C296.531 222.009 300.461 217.509 301.631 211.319C303.151 203.299 300.471 190.939 299.981 182.489C298.051 149.119 294.061 115.849 291.721 82.4886C291.231 75.4786 290.301 68.4986 289.871 61.4886C289.571 56.6286 289.931 50.5286 288.471 45.8886C287.521 42.9086 284.651 39.5886 282.491 37.4886ZM217.451 71.0286C220.121 104.999 222.781 138.969 225.451 172.939C220.981 173.639 205.121 175.299 201.491 174.259C199.291 173.639 197.691 170.829 196.251 169.199C192.351 164.789 188.301 160.479 184.331 156.129C173.341 144.109 162.491 131.969 151.401 120.039C146.641 114.919 142.221 108.359 136.451 104.379C138.271 129.039 140.101 153.689 141.921 178.349C135.101 178.349 128.271 178.349 121.451 178.349C118.781 143.979 116.121 109.609 113.451 75.2386C121.451 75.2386 129.451 75.2386 137.451 75.2386C158.781 98.4986 180.121 121.749 201.451 145.009C199.781 120.349 198.121 95.6886 196.451 71.0286C203.451 71.0286 210.451 71.0286 217.451 71.0286ZM554.451 117.259C547.781 116.219 541.121 115.169 534.451 114.129C533.851 110.259 534.241 106.289 530.981 103.459C527.421 100.359 521.911 99.8186 517.471 98.8986C507.901 96.9186 487.441 91.4286 478.941 96.5086C474.081 99.4086 472.131 105.209 470.651 110.339C467.681 120.619 464.891 132.739 465.541 143.489C466.351 156.879 479.841 158.179 490.431 160.149C498.111 161.569 517.151 166.729 523.221 160.789C526.911 157.169 527.451 150.319 527.841 145.489C519.041 143.779 510.251 142.059 501.451 140.349C502.451 134.329 503.451 128.319 504.451 122.299C520.141 125.029 535.831 127.759 551.521 130.489C552.271 136.349 550.191 142.669 549.151 148.529C548.081 154.529 547.371 160.719 544.781 166.319C534.131 189.379 508.691 183.349 488.451 180.019C470.821 177.119 448.381 172.939 443.841 152.489C442.291 145.529 442.821 138.479 443.691 131.479C446.221 110.959 450.611 80.9886 474.761 75.4186C485.801 72.8686 496.521 75.0486 507.491 76.7686C526.131 79.6886 554.291 82.8286 555.481 106.729C555.661 110.279 555.221 113.839 554.451 117.259Z" fill="white" stroke="white" stroke-width="0.25" stroke-linejoin="round"/>
</svg>
